# xmcd
#
# Track frame offsets:
#	182
#	13940
#	25875
#	39035
#	52075
#	68110
#	77222
#	89395
#	105015
#	120060
#	133110
#	149230
#	163897
#	173747
#	184085
#	196307
#	211157
#	224252
#	238150
#	249265
#
# Disc length: 3565 seconds
#
# Revision: 0
# Processed by: cddbd v1.4b41PL1 Copyright (c) Steve Scherf et al.
# Submitted via: audiograbber 1.80
#
DISCID=140deb14
DTITLE=Jack Jezzro and Ed Kee - Smoky Mountain Hymns - Volume 1
DYEAR=1900
DGENRE=
TTITLE0=Leaning On The Everlasting Arms
TTITLE1=Lily Of The Valley
TTITLE2=When We All Get To Heaven
TTITLE3=Just A Closer Walk With Thee
TTITLE4=I Feel Like Travelin' On
TTITLE5=I Have Decided To Follow Jesus
TTITLE6=Amazing Grace
TTITLE7=Bringing In The Sheaves
TTITLE8=There Shall Be Showers Of Blessing
TTITLE9=At The Cross and On Jordan's Stormy Banks
TTITLE10=This World Is Not My Home
TTITLE11=This Is My Father's World and He's Got The Whole World
TTITLE12=Do Lord
TTITLE13=Farther Along
TTITLE14=Swing Low, Sweet Chariot
TTITLE15=Sweet Hour Of Prayer
TTITLE16=Tis So Sweet To Trust In Jesus
TTITLE17=Mansion Over The Hilltop
TTITLE18=There Is A Fountain
TTITLE19=Blessed Assurance
EXTD=
EXTT0=
EXTT1=
EXTT2=
EXTT3=
EXTT4=
EXTT5=
EXTT6=
EXTT7=
EXTT8=
EXTT9=
EXTT10=
EXTT11=
EXTT12=
EXTT13=
EXTT14=
EXTT15=
EXTT16=
EXTT17=
EXTT18=
EXTT19=
PLAYORDER=
